<?xml version="1.0" standalone="no"?>
<!DOCTYPE svg PUBLIC "-//W3C//DTD SVG 20010904//EN"
 "http://www.w3.org/TR/2001/REC-SVG-20010904/DTD/svg10.dtd">
<svg version="1.0" xmlns="http://www.w3.org/2000/svg"
 width="1648.000000pt" height="1648.000000pt" viewBox="0 0 1648.000000 1648.000000"
 preserveAspectRatio="xMidYMid meet">
<metadata>
Created by potrace 1.14, written by Peter Selinger 2001-2017
</metadata>
<g transform="translate(0.000000,1648.000000) scale(0.100000,-0.100000)"
fill="#000000" stroke="none">
<path d="M11117 11546 c-97 -28 -199 -131 -230 -231 -9 -31 -12 -777 -12
-3400 l0 -3360 24 -59 c32 -79 96 -146 174 -182 130 -60 294 -29 388 73 22 25
53 70 67 101 l27 57 0 3375 0 3375 -28 61 c-71 153 -250 236 -410 190z"/>
<path d="M5365 11221 c-99 -47 -163 -124 -190 -228 -13 -50 -15 -436 -15
-3073 0 -2637 2 -3023 15 -3073 27 -105 91 -181 193 -229 58 -28 69 -30 150
-26 101 5 152 26 220 92 55 52 88 117 102 197 14 89 14 5989 0 6078 -29 176
-165 291 -343 291 -59 0 -83 -5 -132 -29z"/>
<path d="M13059 10570 c-109 -19 -219 -110 -258 -216 -21 -55 -21 -59 -21
-2431 0 -1797 3 -2386 12 -2417 16 -55 69 -134 113 -169 181 -143 450 -71 532
141 17 45 18 156 18 2442 l0 2395 -28 61 c-65 141 -215 220 -368 194z"/>
<path d="M7299 10376 c-94 -33 -175 -111 -208 -200 l-21 -57 0 -2199 0 -2199
21 -58 c40 -107 148 -193 262 -211 152 -24 299 55 365 196 l27 57 0 2215 0
2215 -23 49 c-37 81 -85 131 -164 170 -63 32 -79 36 -147 36 -42 -1 -92 -7
-112 -14z"/>
<path d="M3493 10192 c-77 -28 -156 -93 -190 -157 -44 -82 -43 -26 -43 -2120
0 -2106 -1 -2025 43 -2112 25 -48 98 -114 157 -142 46 -22 69 -26 140 -26 76
0 93 4 152 33 70 34 118 83 160 163 l23 44 0 2040 0 2040 -26 55 c-56 118
-164 190 -293 197 -51 3 -85 -2 -123 -15z"/>
<path d="M9255 9650 c-132 -19 -246 -127 -275 -260 -8 -41 -10 -431 -8 -1500
l3 -1445 29 -63 c67 -146 234 -227 385 -188 105 27 184 91 230 186 l26 55 0
1485 0 1485 -26 55 c-66 139 -207 213 -364 190z"/>
</g>
</svg>
